<?xml version="1.0" encoding="iso-8859-1"?>
<!-- Generator: Adobe Illustrator 19.0.0, SVG Export Plug-In . SVG Version: 6.00 Build 0)  -->
<svg version="1.1" id="Layer_1" xmlns="http://www.w3.org/2000/svg" xmlns:xlink="http://www.w3.org/1999/xlink" x="0px" y="0px"
	 viewBox="0 0 503.6 503.6" style="enable-background:new 0 0 503.6 503.6;" xml:space="preserve">
<path style="fill:#36C9B4;" d="M159.6,480.5c-30.4,30.4-80,30.4-111.2,0l-25.6-25.6c-30.4-30.4-30.4-80,0-111.2L299.6,66.9
	c30.4-30.4,80-30.4,111.2,0l25.6,25.6c30.4,30.4,30.4,80,0,111.2L159.6,480.5z"/>
<path style="fill:#24B2A4;" d="M299.6,66.9c30.4-30.4,80-30.4,111.2,0l25.6,25.6c30.4,30.4,30.4,80,0,111.2l-184,184"/>
<path style="fill:#22B2B2;" d="M491.6,199.7c-15.2,15.2-40.8,15.2-56,0l-132-132c-15.2-15.2-15.2-40.8,0-56l0,0
	c15.2-15.2,40.8-15.2,56,0l132,132C507.6,158.9,507.6,184.5,491.6,199.7L491.6,199.7z"/>
<path style="fill:#149CA3;" d="M491.6,199.7L491.6,199.7c-15.2,15.2-40.8,15.2-56,0l-132-132c-15.2-15.2-15.2-40.8,0-56l0,0"/>
<path style="fill:#991B0E;" d="M298.8,308.5c-6.4-6.4-11.2-13.6-13.6-20.8c-7.2-2.4-14.4-7.2-20.8-13.6s-11.2-13.6-13.6-20.8
	c-7.2-2.4-14.4-7.2-20.8-13.6c-6.4-6.4-11.2-13.6-13.6-20.8c-7.2-2.4-14.4-7.2-20.8-13.6c-2.4-2.4-4-4.8-5.6-6.4L34.8,352.5
	c-25.6,25.6-25.6,68,0,94.4l21.6,21.6c25.6,26.4,68,25.6,94.4,0l154.4-154.4C302.8,312.5,301.2,310.1,298.8,308.5z"/>
<g>
	<path style="fill:#840B06;" d="M56.4,468.5c25.6,26.4,68,25.6,94.4,0l154.4-154.4c-2.4-1.6-4.8-4-6.4-5.6
		c-6.4-6.4-11.2-13.6-13.6-20.8c-7.2-2.4-14.4-7.2-20.8-13.6s-11.2-13.6-13.6-20.8"/>
</g>
<path style="fill:#BA2019;" d="M298.8,308.5c-6.4-6.4-11.2-13.6-13.6-20.8c-7.2-2.4-14.4-7.2-20.8-13.6s-11.2-13.6-13.6-20.8
	c-7.2-2.4-14.4-7.2-20.8-13.6c-6.4-6.4-11.2-13.6-13.6-20.8c-7.2-2.4-14.4-7.2-20.8-13.6c-2.4-2.4-4-4.8-5.6-6.4l-11.2,11.2
	c1.6,2.4,4,4.8,5.6,6.4c6.4,6.4,13.6,11.2,20.8,13.6c2.4,7.2,7.2,14.4,13.6,20.8c6.4,6.4,13.6,11.2,20.8,13.6
	c2.4,7.2,7.2,14.4,13.6,20.8c6.4,6.4,13.6,11.2,20.8,13.6c2.4,7.2,7.2,14.4,13.6,20.8c2.4,2.4,4,4,6.4,5.6l11.2-11.2
	C302.8,312.5,301.2,310.1,298.8,308.5z"/>
<g>
	<path style="fill:#FFFCE9;" d="M266,238.9c-2.4,0-4-0.8-4.8-3.2c-16-25.6-12-58.4,9.6-79.2c21.6-21.6,54.4-25.6,79.2-9.6
		c3.2,1.6,4,5.6,1.6,8c-1.6,3.2-5.6,4-8,1.6c-20.8-12.8-47.2-9.6-64.8,8s-20.8,44-8,64.8c1.6,3.2,0.8,6.4-1.6,8
		C268.4,238.9,266.8,238.9,266,238.9z"/>
	<path style="fill:#FFFCE9;" d="M300.4,252.5c-11.2,0-23.2-3.2-33.6-9.6c-3.2-1.6-4-5.6-1.6-8c1.6-3.2,5.6-4,8-1.6
		c20.8,12.8,47.2,9.6,64.8-8c17.6-17.6,20.8-44,8-64.8c-1.6-3.2-0.8-6.4,1.6-8c3.2-1.6,6.4-0.8,8,1.6c16,25.6,12,58.4-9.6,79.2
		C334,245.3,317.2,252.5,300.4,252.5z"/>
	<path style="fill:#FFFCE9;" d="M365.2,192.5c-0.8,0-0.8,0-1.6-0.8l-52-52c-0.8-0.8-0.8-2.4,0-3.2s2.4-0.8,3.2,0l52,52
		c0.8,0.8,0.8,2.4,0,3.2C366,191.7,365.2,192.5,365.2,192.5z"/>
	<path style="fill:#FFFCE9;" d="M352.4,204.5c-0.8,0-0.8,0-1.6-0.8l-51.2-52c-0.8-0.8-0.8-2.4,0-3.2s2.4-0.8,3.2,0l52,52
		c0.8,0.8,0.8,2.4,0,3.2C354,204.5,353.2,204.5,352.4,204.5z"/>
	<path style="fill:#FFFCE9;" d="M340.4,216.5c-0.8,0-0.8,0-1.6-0.8l-52-52c-0.8-0.8-0.8-2.4,0-3.2s2.4-0.8,3.2,0l52,52
		c0.8,0.8,0.8,2.4,0,3.2S341.2,216.5,340.4,216.5z"/>
	<path style="fill:#FFFCE9;" d="M328.4,229.3c-0.8,0-0.8,0-1.6-0.8l-52-52c-0.8-0.8-0.8-2.4,0-3.2s2.4-0.8,3.2,0l52,52
		c0.8,0.8,0.8,2.4,0,3.2C329.2,228.5,328.4,229.3,328.4,229.3z"/>
	<path style="fill:#FFFCE9;" d="M315.6,241.3c-0.8,0-0.8,0-1.6-0.8l-52-52c-0.8-0.8-0.8-2.4,0-3.2s2.4-0.8,3.2,0l52,52
		c0.8,0.8,0.8,2.4,0,3.2C317.2,241.3,316.4,241.3,315.6,241.3z"/>
	<path style="fill:#FFFCE9;" d="M303.6,253.3c-0.8,0-0.8,0-1.6-0.8l-52-52c-0.8-0.8-0.8-2.4,0-3.2s2.4-0.8,3.2,0l52,52
		c0.8,0.8,0.8,2.4,0,3.2C304.4,253.3,304.4,253.3,303.6,253.3z"/>
	<path style="fill:#FFFCE9;" d="M182.8,322.9c-2.4,0-4-0.8-4.8-3.2c-16-25.6-12-58.4,9.6-79.2c21.6-21.6,53.6-25.6,79.2-9.6
		c3.2,1.6,4,5.6,1.6,8c-1.6,3.2-5.6,4-8,1.6c-20.8-12.8-47.2-9.6-64.8,8c-17.6,17.6-20.8,44-8,64.8c1.6,3.2,0.8,6.4-1.6,8
		C184.4,322.1,183.6,322.9,182.8,322.9z"/>
	<path style="fill:#FFFCE9;" d="M217.2,335.7c-11.2,0-23.2-3.2-33.6-9.6c-3.2-1.6-4-5.6-1.6-8c1.6-3.2,5.6-4,8-1.6
		c20.8,12.8,47.2,9.6,64.8-8s20.8-44,8-64.8c-1.6-3.2-0.8-6.4,1.6-8c3.2-1.6,6.4-0.8,8,1.6c16,25.6,12,58.4-9.6,79.2
		C250.8,329.3,234,335.7,217.2,335.7z"/>
	<path style="fill:#FFFCE9;" d="M281.2,275.7c-0.8,0-0.8,0-1.6-0.8l-52-52c-0.8-0.8-0.8-2.4,0-3.2s2.4-0.8,3.2,0l52,52
		c0.8,0.8,0.8,2.4,0,3.2C282.8,275.7,282,275.7,281.2,275.7z"/>
	<path style="fill:#FFFCE9;" d="M269.2,287.7c-0.8,0-0.8,0-1.6-0.8l-51.2-51.2c-0.8-0.8-0.8-2.4,0-3.2s2.4-0.8,3.2,0l52,52
		c0.8,0.8,0.8,2.4,0,3.2C270,287.7,270,287.7,269.2,287.7z"/>
	<path style="fill:#FFFCE9;" d="M257.2,300.5c-0.8,0-0.8,0-1.6-0.8l-52-52c-0.8-0.8-0.8-2.4,0-3.2s2.4-0.8,3.2,0l52,52
		c0.8,0.8,0.8,2.4,0,3.2C258,299.7,257.2,300.5,257.2,300.5z"/>
	<path style="fill:#FFFCE9;" d="M244.4,312.5c-0.8,0-0.8,0-1.6-0.8l-51.2-52c-0.8-0.8-0.8-2.4,0-3.2c0.8-0.8,2.4-0.8,3.2,0l52,52
		c0.8,0.8,0.8,2.4,0,3.2C246,312.5,245.2,312.5,244.4,312.5z"/>
	<path style="fill:#FFFCE9;" d="M232.4,324.5c-0.8,0-0.8,0-1.6-0.8l-51.2-51.2c-0.8-0.8-0.8-2.4,0-3.2s2.4-0.8,3.2,0l52,52
		c0.8,0.8,0.8,2.4,0,3.2C233.2,324.5,233.2,324.5,232.4,324.5z"/>
	<path style="fill:#FFFCE9;" d="M220.4,337.3c-0.8,0-0.8,0-1.6-0.8l-52-52c-0.8-0.8-0.8-2.4,0-3.2s2.4-0.8,3.2,0l52,52
		c0.8,0.8,0.8,2.4,0,3.2C221.2,336.5,220.4,337.3,220.4,337.3z"/>
	<path style="fill:#FFFCE9;" d="M98.8,406.1c-2.4,0-4-0.8-4.8-3.2c-16-25.6-12-58.4,9.6-79.2c21.6-21.6,54.4-25.6,79.2-9.6
		c3.2,1.6,4,5.6,1.6,8c-1.6,3.2-5.6,4-8,1.6c-20.8-12.8-47.2-9.6-64.8,8s-20.8,44-8,64.8c1.6,3.2,0.8,6.4-1.6,8
		C101.2,405.3,100.4,406.1,98.8,406.1z"/>
	<path style="fill:#FFFCE9;" d="M134,418.9c-11.2,0-23.2-3.2-33.6-9.6c-3.2-1.6-4-5.6-1.6-8s5.6-4,8-1.6c20.8,12.8,47.2,9.6,64.8-8
		s20.8-44,8-64.8c-1.6-3.2-0.8-6.4,1.6-8c3.2-1.6,6.4-0.8,8,1.6c16,25.6,12,58.4-9.6,79.2C166.8,412.5,150.8,418.9,134,418.9z"/>
	<path style="fill:#FFFCE9;" d="M198,358.9c-0.8,0-0.8,0-1.6-0.8l-52-52c-0.8-0.8-0.8-2.4,0-3.2s2.4-0.8,3.2,0l52,52
		c0.8,0.8,0.8,2.4,0,3.2C199.6,358.9,198.8,358.9,198,358.9z"/>
	<path style="fill:#FFFCE9;" d="M186,370.9c-0.8,0-0.8,0-1.6-0.8l-52-52c-0.8-0.8-0.8-2.4,0-3.2s2.4-0.8,3.2,0l52,52
		c0.8,0.8,0.8,2.4,0,3.2C186.8,370.9,186.8,370.9,186,370.9z"/>
	<path style="fill:#FFFCE9;" d="M174,383.7c-0.8,0-0.8,0-1.6-0.8l-52-52c-0.8-0.8-0.8-2.4,0-3.2s2.4-0.8,3.2,0l52,52
		c0.8,0.8,0.8,2.4,0,3.2C174.8,383.7,174,383.7,174,383.7z"/>
	<path style="fill:#FFFCE9;" d="M161.2,395.7c-0.8,0-0.8,0-1.6-0.8l-52-52c-0.8-0.8-0.8-2.4,0-3.2s2.4-0.8,3.2,0l52,52
		c0.8,0.8,0.8,2.4,0,3.2C162,395.7,162,395.7,161.2,395.7z"/>
	<path style="fill:#FFFCE9;" d="M149.2,407.7c-0.8,0-0.8,0-1.6-0.8l-52-51.2c-0.8-0.8-0.8-2.4,0-3.2s2.4-0.8,3.2,0l52,52
		c0.8,0.8,0.8,2.4,0,3.2C150,407.7,149.2,407.7,149.2,407.7z"/>
	<path style="fill:#FFFCE9;" d="M136.4,420.5c-0.8,0-0.8,0-1.6-0.8l-51.2-52c-0.8-0.8-0.8-2.4,0-3.2s2.4-0.8,3.2,0l52,52
		c0.8,0.8,0.8,2.4,0,3.2C138,420.5,137.2,420.5,136.4,420.5z"/>
</g>
<g style="opacity:0.6;">
	<path style="fill:#D9FCF6;" d="M117.2,313.3c-3.2,3.2-9.6,3.2-12.8,0l0,0c-3.2-3.2-3.2-9.6,0-12.8l199.2-199.2
		c3.2-3.2,9.6-3.2,12.8,0l0,0c3.2,3.2,3.2,9.6,0,12.8L117.2,313.3z"/>
</g>
<g style="opacity:0.6;">
	<circle style="fill:#D9FCF6;" cx="89.2" cy="328.5" r="8.8"/>
</g>
<g style="opacity:0.6;">
	<circle style="fill:#D9FCF6;" cx="71.6" cy="346.1" r="4.8"/>
</g>
<g>
</g>
<g>
</g>
<g>
</g>
<g>
</g>
<g>
</g>
<g>
</g>
<g>
</g>
<g>
</g>
<g>
</g>
<g>
</g>
<g>
</g>
<g>
</g>
<g>
</g>
<g>
</g>
<g>
</g>
</svg>
